<svg width="500" height="420" viewBox="0 0 500 420" fill="none" xmlns="http://www.w3.org/2000/svg">
<path d="M347.19 38.4497C394.978 15.3401 435.767 3.65154 462.771 6.03733C479.275 7.49615 490.685 14.1221 495.508 26.4206C508.224 58.8618 471.752 122.716 406.933 191.388C406.924 191.425 406.914 191.463 406.905 191.5C400.229 197.788 393.855 204.288 387.804 210.967C357.84 240.636 323.171 270.742 285.063 299.201C246.544 327.968 208.834 351.941 174.131 370.408C174.313 370.444 174.496 370.478 174.678 370.513C167.349 373.585 160.156 377.117 153.159 381.064C153.147 381.06 153.133 381.055 153.121 381.051C105.161 404.268 64.3115 415.889 37.2341 413.497C20.7294 412.038 9.32038 405.413 4.49821 393.115C-8.21827 360.673 28.1547 296.841 92.9735 228.17C93.062 227.825 93.1544 227.479 93.2442 227.134L93.7805 227.119C97.0443 245.643 100.652 263.969 104.367 280.472C97.4141 284.067 91.6938 289.333 87.8017 295.211C87.7919 295.135 87.7807 295.059 87.7711 294.984C64.3243 322.365 52.0486 343.991 56.1746 354.521C57.7488 358.505 61.5343 360.686 67.2348 361.19C76.6439 362.021 91.3088 358.266 109.759 350.649C109.713 350.59 109.667 350.529 109.621 350.469C111.67 349.911 113.753 349.117 115.827 348.074C116.831 347.569 117.803 347.018 118.742 346.431L125.107 343.889L125.045 343.543C125.102 343.61 125.161 343.677 125.218 343.741C163.495 325.651 213.91 294.531 267.542 254.478C319.174 215.908 364.264 176.218 396.026 142.676L396.097 142.767L413.492 123.776L413.263 123.485C436.144 96.5774 447.899 75.4284 443.818 65.0134C442.243 61.0298 438.458 58.847 432.757 58.3429C423.422 57.5185 408.679 61.4662 390.411 68.9775C390.546 69.1515 390.68 69.3269 390.814 69.5019L374.271 78.0645L376.365 84.2603C366.886 69.4213 355.756 55.2101 345.545 44.5121L346.048 38.0725C346.428 38.197 346.811 38.3226 347.19 38.4497Z" fill="#E0A838"/>
<path d="M431.778 171.922C441.962 190.206 447.914 211.313 448.274 233.934C449.434 306.787 392.174 367.743 320.379 370.081C319.229 370.118 318.081 370.139 316.937 370.146L316.938 370.192L260.808 372.019L260.084 326.527C276.018 319.674 291.456 310.893 306.075 300.33C306.32 300.153 306.565 299.974 306.81 299.796L306.896 305.228L334.96 304.315L334.96 304.289C335.532 304.286 336.106 304.277 336.681 304.259C372.578 303.09 401.209 272.612 400.629 236.185C400.529 229.891 399.561 223.832 397.845 218.119L431.778 171.922ZM253.637 371.693L208.984 373.147L208.944 370.612L205.157 361.069C220.783 352.096 236.806 341.76 252.975 330.13L253.637 371.693ZM251.702 250.234L183.121 305.529L159.324 245.545L160.291 306.26C156.425 305.723 152.586 305.042 148.784 304.214C137.146 301.682 125.962 297.816 115.398 292.697L112.542 113.442L157.196 111.989L157.209 112.758L206.828 237.823L204.79 109.877L249.443 108.424L251.702 250.234ZM312.736 106.41C313.878 106.342 315.026 106.289 316.176 106.252C339.627 105.488 361.728 111.074 380.9 121.481L348.577 169.473C347.582 170.618 346.577 171.77 345.559 172.923C341.985 172.425 338.316 172.223 334.58 172.345C334.005 172.364 333.43 172.392 332.859 172.425L332.859 172.4L324.726 172.665L324.726 172.645L302.348 173.374C301.351 172.313 300.363 171.24 299.386 170.155L260.408 108.793L260.396 108.068L260.037 108.079L312.735 106.363L312.736 106.41Z" fill="#2E3238"/>
</svg>
